# xmcd
#
# Track frame offsets:
#	182
#	21185
#	29497
#	57955
#	79235
#	101727
#	123725
#	129705
#	161350
#	187900
#	198882
#	211190
#	234527
#
# Disc length: 3230 seconds
#
# Revision: 0
# Processed by: cddbd v1.4PL0 Copyright (c) Steve Scherf et al.
# Submitted via: EasyCDDAExtractor 4.6.9.1
#
DISCID=af0c9c0d
DTITLE=Paulino Vieira - Nha primero lar
DYEAR=1900
DGENRE=Ethnic
TTITLE0=Sodade de nha terra S. Nicolau
TTITLE1=S. Jo na Praia Branca
TTITLE2=Nha Primero Lar
TTITLE3=Sabe d'Bera
TTITLE4=Lundum
TTITLE5=Mazurka
TTITLE6=Inspiracao
TTITLE7=Felicidade ja tchga na mim
TTITLE8=Um Minute d'silencie
TTITLE9=Viola e Bic
TTITLE10=Mirin d'Agua
TTITLE11=Choradinha
TTITLE12=Percussao
EXTD=
EXTT0=
EXTT1=
EXTT2=
EXTT3=
EXTT4=
EXTT5=
EXTT6=
EXTT7=
EXTT8=
EXTT9=
EXTT10=
EXTT11=
EXTT12=
PLAYORDER=
